<?xml version="1.0" encoding="UTF-8"?>
<svg xmlns="http://www.w3.org/2000/svg" xmlns:xlink="http://www.w3.org/1999/xlink" width="3000" height="3000" viewBox="0 0 3000 3000">
<path fill-rule="nonzero" fill="rgb(49.388123%, 59.179688%, 94.921875%)" fill-opacity="1" d="M 1709.039062 2290.621094 C 1788.089844 2404.351562 1809.71875 2555.910156 1765.710938 2687.21875 C 1759.230469 2668.738281 1752.75 2650.261719 1746.238281 2631.78125 C 1691.730469 2755.050781 1604.851562 2863.800781 1496.101562 2942.667969 C 1455.058594 2887.050781 1399.738281 2842.53125 1350.871094 2792.398438 C 1302 2742.238281 1257.78125 2682.601562 1248.328125 2613.210938 C 1236.628906 2629.921875 1230.421875 2650.410156 1230.808594 2670.808594 C 1176.691406 2562.179688 1192.261719 2422.46875 1273.949219 2331.421875 C 1408.410156 2317.289062 1542.839844 2303.160156 1709.039062 2290.621094 "/>
<path fill-rule="nonzero" fill="rgb(63.867188%, 71.875%, 100%)" fill-opacity="1" d="M 1600.410156 2316.628906 C 1657.980469 2380.679688 1687.890625 2468.789062 1681.171875 2554.648438 C 1674.269531 2534.25 1667.339844 2513.878906 1660.441406 2493.480469 C 1653.179688 2604.269531 1599.929688 2711.371094 1515.960938 2784.03125 C 1453.558594 2721.628906 1389.058594 2646.898438 1353.691406 2557.109375 C 1350.449219 2566.890625 1347.238281 2576.671875 1344 2586.449219 C 1312.949219 2501.699219 1328.398438 2401.5 1390.53125 2325.929688 C 1462.558594 2318.671875 1534.589844 2311.351562 1600.410156 2316.628906 "/>
<path fill-rule="nonzero" fill="rgb(37.597656%, 32.910156%, 54.881287%)" fill-opacity="1" d="M 2475.511719 1968.75 C 2470.019531 1861.378906 2430.449219 1758.300781 2362.050781 1675.351562 C 2285.519531 1582.53125 2199.269531 1496.730469 2104.648438 1421.339844 L 1961.578125 2122.921875 L 2003.578125 2136.449219 C 2104.019531 2168.820312 2191.859375 2231.761719 2254.769531 2316.480469 L 2449.800781 2578.980469 C 2477.308594 2376.929688 2485.921875 2172.359375 2475.511719 1968.75 Z M 895.378906 1421.339844 C 827.789062 1475.191406 764.460938 1534.378906 705.929688 1597.648438 C 682.46875 1622.910156 659.820312 1648.859375 637.949219 1675.351562 C 569.578125 1758.300781 529.980469 1861.378906 524.488281 1968.75 C 514.078125 2172.359375 522.691406 2376.960938 550.230469 2578.980469 L 745.261719 2316.480469 C 794.371094 2250.359375 858.660156 2197.53125 932.28125 2162.128906 C 952.980469 2152.140625 974.460938 2143.589844 996.480469 2136.449219 L 1038.421875 2122.921875 L 895.378906 1421.339844 "/>
<path fill-rule="nonzero" fill="rgb(21.99707%, 19.189453%, 32.910156%)" fill-opacity="1" d="M 1038.449219 2122.921875 L 996.511719 2136.449219 C 974.488281 2143.558594 953.011719 2152.140625 932.308594 2162.128906 C 887.550781 1961.820312 826.378906 1761.570312 705.929688 1597.679688 C 764.460938 1534.410156 827.789062 1475.21875 895.378906 1421.371094 Z M 1961.671875 2122.921875 L 2003.609375 2136.449219 C 2025.628906 2143.558594 2047.109375 2152.140625 2067.808594 2162.128906 C 2112.570312 1961.820312 2173.738281 1761.570312 2294.191406 1597.679688 C 2235.660156 1534.410156 2172.328125 1475.21875 2104.738281 1421.371094 L 1961.671875 2122.921875 "/>
<path fill-rule="nonzero" fill="rgb(94.921875%, 71.09375%, 26.708984%)" fill-opacity="1" d="M 2016.238281 2200.261719 C 2008.050781 2221.921875 1999.558594 2243.429688 1990.738281 2264.789062 C 1990.078125 2266.378906 1989.421875 2268 1988.789062 2269.589844 C 1987.769531 2269.800781 1986.78125 2269.980469 1985.730469 2270.21875 C 1929 2281.769531 1871.851562 2291.28125 1814.460938 2298.871094 C 1807.589844 2317.050781 1800.988281 2334.628906 1795.050781 2350.679688 C 1767.601562 2357.070312 1739.96875 2362.558594 1712.21875 2367.121094 C 1708.558594 2367.75 1704.898438 2368.320312 1701.210938 2368.890625 C 1658.851562 2375.519531 1616.191406 2380.050781 1573.410156 2382.628906 C 1570.980469 2382.78125 1568.578125 2382.929688 1566.179688 2383.078125 C 1523.460938 2385.449219 1480.621094 2385.871094 1437.898438 2384.429688 C 1434.71875 2384.371094 1431.570312 2384.25 1428.390625 2384.101562 C 1387.589844 2382.511719 1346.910156 2379.238281 1306.5 2374.410156 C 1302.691406 2373.960938 1298.820312 2373.511719 1295.011719 2373 C 1264.261719 2369.128906 1233.660156 2364.300781 1203.328125 2358.628906 C 1194.390625 2339.789062 1185.449219 2323.648438 1176.03125 2305.769531 C 1153.441406 2303.398438 1130.851562 2300.789062 1108.320312 2297.878906 C 1103.609375 2297.25 1098.871094 2296.648438 1094.160156 2296.019531 C 1085.699219 2294.910156 1077.269531 2293.710938 1068.898438 2292.511719 C 1054.441406 2290.46875 1040.039062 2288.28125 1025.609375 2285.96875 C 1013.851562 2256.539062 1002.480469 2226.898438 991.53125 2197.019531 C 858.359375 1834.050781 788.160156 1442.96875 847.410156 1062 C 850.859375 1039.738281 854.820312 1017.539062 859.289062 995.371094 C 861.121094 986.128906 863.070312 976.921875 865.109375 967.679688 C 865.261719 966.898438 865.441406 966.148438 865.648438 965.371094 C 875.101562 922.351562 886.410156 879.691406 899.488281 837.511719 C 900.058594 835.648438 900.601562 833.820312 901.199219 831.988281 C 1003.621094 506.519531 1222.019531 222.570312 1502.851562 57.328125 C 1744.589844 245.429688 1999.320312 503.730469 2106.058594 813.898438 C 2107.769531 818.910156 2109.480469 823.890625 2111.070312 828.898438 C 2111.550781 830.308594 2112 831.71875 2112.449219 833.160156 C 2124.691406 871.019531 2134.738281 909.480469 2142.898438 948.359375 C 2144.308594 954.988281 2145.628906 961.621094 2146.949219 968.308594 C 2148.691406 977.308594 2150.371094 986.398438 2151.960938 995.460938 C 2166.390625 1079.191406 2173.078125 1164.480469 2175.421875 1249.5 C 2184.210938 1574.339844 2129.550781 1900.769531 2016.238281 2200.261719 "/>
<path fill-rule="nonzero" fill="rgb(37.597656%, 32.910156%, 54.881287%)" fill-opacity="1" d="M 2111.070312 828.898438 C 1721.941406 936.121094 1304.699219 940.828125 899.488281 837.511719 C 900.058594 835.648438 900.601562 833.820312 901.199219 831.988281 C 1003.621094 506.519531 1199.789062 228.898438 1501.261719 57.328125 C 1759.890625 247.019531 1999.320312 503.730469 2106.058594 813.898438 C 2107.769531 818.910156 2109.480469 823.890625 2111.070312 828.898438 Z M 1313.039062 2382.929688 C 1313.011719 2382.898438 1313.011719 2382.898438 1312.980469 2382.871094 C 1313.070312 2382.988281 1313.070312 2382.960938 1313.039062 2382.929688 Z M 1312.589844 2382.359375 C 1312.648438 2382.449219 1312.738281 2382.570312 1312.828125 2382.660156 C 1312.890625 2382.71875 1312.921875 2382.78125 1313.011719 2382.871094 C 1312.921875 2382.808594 1312.828125 2382.660156 1312.589844 2382.359375 Z M 991.5 2196.960938 C 1002.480469 2226.839844 1013.851562 2256.480469 1025.578125 2285.910156 C 1040.011719 2288.21875 1054.410156 2290.378906 1068.871094 2292.449219 C 1077.300781 2293.648438 1085.699219 2294.820312 1094.128906 2295.960938 C 1098.839844 2296.589844 1103.578125 2297.191406 1108.289062 2297.820312 C 1130.820312 2300.699219 1153.378906 2303.339844 1175.96875 2305.679688 C 1206.328125 2308.890625 1236.75 2311.558594 1267.230469 2313.75 C 1269 2319.570312 1271.308594 2325.238281 1273.261719 2330.96875 C 1278.148438 2346.058594 1285.679688 2360.070312 1294.949219 2372.910156 C 1298.761719 2373.421875 1302.628906 2373.871094 1306.441406 2374.320312 C 1297.261719 2361.511719 1289.039062 2346.601562 1284.78125 2332.410156 C 1282.738281 2326.589844 1280.671875 2320.378906 1278.988281 2314.558594 C 1320 2317.351562 1361.070312 2319.210938 1402.171875 2320.199219 C 1404.300781 2328.449219 1406.519531 2336.640625 1409.488281 2344.621094 C 1413.988281 2356.921875 1420.050781 2368.621094 1426.109375 2380.199219 C 1426.828125 2381.460938 1427.550781 2382.75 1428.300781 2384.011719 C 1431.480469 2384.160156 1434.628906 2384.28125 1437.808594 2384.339844 C 1426.171875 2365.289062 1417.710938 2347.019531 1411.140625 2328 C 1410.300781 2325.449219 1409.550781 2322.898438 1408.769531 2320.320312 C 1470 2321.640625 1531.261719 2320.921875 1592.339844 2318.101562 C 1587.449219 2340 1577.429688 2361.988281 1566.089844 2382.988281 C 1568.519531 2382.871094 1570.921875 2382.71875 1573.320312 2382.539062 C 1579.980469 2369.308594 1586.128906 2355.808594 1591.199219 2341.890625 C 1594.109375 2334.058594 1596.03125 2325.929688 1597.949219 2317.800781 C 1639.199219 2315.851562 1680.359375 2312.910156 1721.398438 2309.039062 C 1716.121094 2330.578125 1710.210938 2349.960938 1701.148438 2368.800781 C 1704.808594 2368.230469 1708.46875 2367.660156 1712.160156 2367.03125 C 1715.339844 2360.339844 1718.101562 2353.5 1720.410156 2346.480469 C 1724.101562 2333.878906 1727.429688 2321.070312 1729.980469 2308.199219 C 1758.238281 2305.441406 1786.410156 2302.230469 1814.519531 2298.539062 C 1871.96875 2291.039062 1929.058594 2281.589844 1985.699219 2270.128906 C 1986.71875 2269.921875 1987.710938 2269.738281 1988.761719 2269.5 C 1989.421875 2267.910156 1990.078125 2266.289062 1990.710938 2264.699219 C 1999.53125 2243.339844 2008.019531 2221.828125 2016.210938 2200.171875 C 1675.441406 2229.269531 1332.089844 2228.128906 991.5 2196.960938 "/>
<path fill-rule="nonzero" fill="rgb(21.99707%, 19.189453%, 32.910156%)" fill-opacity="1" d="M 1189.289062 560.519531 C 1226.730469 489.929688 1273.441406 422.339844 1337.640625 374.761719 C 1401.839844 327.179688 1485.78125 301.679688 1563.328125 320.941406 C 1642.53125 340.589844 1703.878906 402.328125 1755.058594 465.898438 C 1784.789062 502.828125 1814.011719 545.851562 1810.230469 593.101562 C 1810.230469 593.101562 1682.550781 616.320312 1678.320312 618.449219 C 1637.128906 562.53125 1562.640625 532.441406 1493.191406 532.261719 C 1423.738281 532.050781 1355.039062 566.398438 1313.519531 622.078125 L 1185.359375 583.441406 L 1189.289062 560.519531 "/>
<path fill-rule="nonzero" fill="rgb(94.921875%, 94.921875%, 94.921875%)" fill-opacity="1" d="M 1821.71875 590.398438 C 1818.691406 575.039062 1816.261719 559.5 1810.769531 544.769531 C 1802.339844 521.101562 1789.621094 499.441406 1775.941406 478.441406 C 1746.601562 432.058594 1709.519531 390.871094 1666.46875 356.851562 C 1619.609375 319.859375 1574.011719 298.46875 1512.511719 300.960938 C 1443.179688 302.011719 1399.46875 319.621094 1345.738281 359.128906 C 1321.378906 376.171875 1301.070312 398.039062 1280.011719 418.800781 C 1257.898438 440.25 1238.160156 463.921875 1219.230469 488.191406 C 1205.910156 506.609375 1191.960938 525.089844 1184.28125 546.71875 C 1180.199219 557.609375 1175.519531 568.648438 1175.609375 580.441406 C 1175.609375 580.53125 1175.640625 580.589844 1175.640625 580.679688 C 1175.488281 582.328125 1175.820312 583.738281 1176.511719 584.941406 C 1177.078125 585.960938 1177.890625 586.648438 1178.789062 587.191406 C 1179.449219 588.179688 1180.441406 588.988281 1181.761719 589.320312 C 1196.128906 594.75 1210.46875 600.328125 1225.558594 603.539062 C 1237.800781 606.808594 1249.800781 611.039062 1262.070312 614.191406 C 1275.839844 617.28125 1289.398438 621.328125 1303.140625 624.511719 C 1307.011719 624.839844 1312.261719 627.300781 1315.800781 625.828125 C 1316.339844 625.648438 1316.820312 625.378906 1317.238281 625.050781 C 1319.519531 625.320312 1321.890625 624.660156 1323.660156 622.769531 C 1335.601562 606.898438 1355.25 588.210938 1365.511719 580.410156 C 1381.859375 567.929688 1406.820312 555.148438 1419.539062 550.859375 C 1431.480469 546.328125 1444.078125 544.050781 1456.679688 542.25 C 1468.53125 540.089844 1489.230469 539.101562 1507.53125 539.941406 C 1548.539062 541.050781 1582.980469 553.589844 1619.128906 579.03125 C 1639.289062 592.800781 1651.890625 601.289062 1669.261719 617.878906 C 1670.578125 618.988281 1671.808594 620.371094 1673.191406 621.449219 C 1674.421875 622.679688 1676.101562 623.398438 1677.988281 623.28125 C 1679.28125 623.488281 1680.660156 623.429688 1681.949219 623.519531 C 1699.859375 623.699219 1713.449219 619.589844 1727.789062 618.089844 C 1736.101562 616.738281 1744.140625 614.191406 1752.359375 612.390625 C 1759.410156 610.859375 1766.609375 610.140625 1773.660156 608.789062 C 1782.210938 607.378906 1790.671875 605.429688 1799.25 604.261719 C 1798.738281 604.320312 1798.199219 604.410156 1797.691406 604.46875 C 1803.960938 603.328125 1810.980469 603.601562 1816.679688 600.601562 C 1816.859375 600.480469 1816.980469 600.328125 1817.128906 600.210938 C 1820.609375 598.46875 1823.070312 594.570312 1821.71875 590.398438 Z M 1317.511719 604.5 C 1315.980469 606.898438 1313.699219 609 1312.019531 611.398438 C 1289.699219 604.859375 1267.589844 597.691406 1245.421875 590.730469 C 1228.441406 586.199219 1205.308594 579.179688 1192.710938 574.261719 C 1195.589844 566.878906 1198.769531 558.449219 1202.039062 552 C 1212.601562 529.019531 1227.960938 508.828125 1239.480469 494.339844 C 1257.421875 472.050781 1276.320312 450.601562 1296.871094 430.679688 C 1303.351562 424.351562 1309.828125 417.960938 1316.339844 411.660156 C 1325.910156 431.789062 1336.921875 451.199219 1347.449219 470.820312 C 1352.101562 478.53125 1357.199219 486 1360.921875 494.21875 C 1366.648438 506.820312 1372.890625 519.179688 1379.128906 531.539062 C 1381.800781 535.980469 1384.109375 541.890625 1386.78125 546.78125 C 1360.109375 560.96875 1336.46875 581.160156 1317.511719 604.5 Z M 1550.730469 530.070312 C 1518.03125 522.480469 1483.648438 521.640625 1450.46875 526.441406 C 1432.230469 528.570312 1414.648438 533.761719 1398.089844 541.261719 C 1389.148438 524.011719 1381.140625 506.371094 1373.429688 488.550781 C 1364.878906 471.898438 1355.640625 455.609375 1347.75 438.628906 C 1341.210938 426.089844 1334.550781 413.371094 1327.378906 401.160156 C 1332.390625 396.480469 1337.460938 391.890625 1342.679688 387.449219 C 1350.238281 380.910156 1367.398438 369.421875 1382.371094 360.269531 C 1407.480469 345.78125 1420.199219 339.300781 1447.140625 332.609375 C 1475.820312 325.289062 1516.050781 323.191406 1543.679688 324.691406 C 1590.75 331.890625 1622.578125 347.789062 1661.160156 377.371094 C 1664.910156 380.371094 1671.148438 385.558594 1678.320312 391.800781 C 1660.410156 420.328125 1644.03125 449.730469 1626.449219 478.441406 C 1613.851562 498.871094 1594.679688 526.921875 1584.121094 542.101562 C 1573.949219 537.539062 1563.988281 534.03125 1550.730469 530.070312 Z M 1803.75 587.429688 C 1790.671875 590.28125 1774.410156 591.660156 1757.160156 595.050781 C 1739.550781 598.019531 1722.390625 603.03125 1704.78125 605.941406 C 1697.339844 607.140625 1689.871094 608.128906 1682.429688 609.179688 C 1681.769531 609.328125 1681.050781 609.449219 1680.359375 609.511719 C 1678.320312 607.558594 1675.859375 605.851562 1674.148438 603.871094 C 1664.878906 595.109375 1655.21875 586.738281 1644.75 579.449219 C 1632.089844 570.839844 1620.058594 561.238281 1606.769531 553.589844 C 1602.78125 551.398438 1599.089844 549.421875 1595.578125 547.621094 C 1599.960938 540.929688 1603.710938 533.789062 1608.058594 527.070312 C 1613.96875 517.828125 1620.449219 508.949219 1626.179688 499.589844 C 1639.078125 479.578125 1649.578125 458.21875 1661.488281 437.671875 C 1668.960938 424.078125 1676.640625 410.609375 1684.558594 397.289062 C 1697.820312 409.109375 1712.730469 423.300781 1721.371094 434.398438 C 1738.679688 454.769531 1750.589844 471.058594 1766.371094 496.289062 C 1783.828125 524.011719 1794.75 544.410156 1801.230469 574.441406 C 1802.128906 578.761719 1803 583.109375 1803.871094 587.460938 C 1803.78125 587.429688 1803.78125 587.429688 1803.75 587.429688 Z M 2151.929688 995.488281 C 1725.71875 1073.28125 1285.46875 1073.191406 859.289062 995.371094 C 861.121094 986.128906 863.070312 976.921875 865.109375 967.679688 C 865.261719 966.898438 865.441406 966.148438 865.648438 965.371094 C 1287.71875 1045.140625 1724.550781 1046.21875 2146.949219 968.308594 C 2148.660156 977.339844 2150.339844 986.398438 2151.929688 995.488281 "/>
</svg>
